# xmcd
#
# Track frame offsets:
#	150
#	11235
#	30172
#	49772
#	64356
#	82007
#	99683
#	116184
#	144635
#	157089
#
# Disc length: 2347 seconds
#
# Revision: 1
# Processed by: cddbd v1.5.2PL0 Copyright (c) Steve Scherf et al.
# Submitted via: audiograbber 1.83.01
#
DISCID=8c09290a
DTITLE=Francisco Celedón - El Gusto Es Mío
DYEAR=2013
DGENRE=
TTITLE0=Cruzando El Mar
TTITLE1=Extrañándote
TTITLE2=Fue Más Que Un Sueño
TTITLE3=Dieciocho
TTITLE4=That's Why I Play The Blues
TTITLE5=Hip-Harp
TTITLE6=Mayday
TTITLE7=Travesía
TTITLE8=Sueño Gitano
TTITLE9=De Regreso A Casa
EXTD=
EXTT0=
EXTT1=
EXTT2=
EXTT3=
EXTT4=
EXTT5=
EXTT6=
EXTT7=
EXTT8=
EXTT9=
PLAYORDER=
